<svg width="26" height="26" viewBox="0 0 26 26" fill="none" xmlns="http://www.w3.org/2000/svg">
<path fill-rule="evenodd" clip-rule="evenodd" d="M6.59995 0.0175781C6.1756 0.0175781 5.76864 0.186149 5.46858 0.486207C5.16852 0.786265 4.99995 1.19323 4.99995 1.61758V3.21758H3.39995C2.55126 3.21758 1.73733 3.55472 1.13721 4.15484C0.537093 4.75495 0.199951 5.56889 0.199951 6.41758V22.4176C0.199951 23.2663 0.537093 24.0802 1.13721 24.6803C1.73733 25.2804 2.55126 25.6176 3.39995 25.6176H22.6C23.4486 25.6176 24.2626 25.2804 24.8627 24.6803C25.4628 24.0802 25.8 23.2663 25.8 22.4176V6.41758C25.8 5.56889 25.4628 4.75495 24.8627 4.15484C24.2626 3.55472 23.4486 3.21758 22.6 3.21758H21V1.61758C21 1.19323 20.8314 0.786265 20.5313 0.486207C20.2313 0.186149 19.8243 0.0175781 19.4 0.0175781C18.9756 0.0175781 18.5686 0.186149 18.2686 0.486207C17.9685 0.786265 17.8 1.19323 17.8 1.61758V3.21758H8.19995V1.61758C8.19995 1.19323 8.03138 0.786265 7.73132 0.486207C7.43126 0.186149 7.0243 0.0175781 6.59995 0.0175781ZM6.59995 8.01758C6.1756 8.01758 5.76864 8.18615 5.46858 8.48621C5.16852 8.78627 4.99995 9.19323 4.99995 9.61758C4.99995 10.0419 5.16852 10.4489 5.46858 10.7489C5.76864 11.049 6.1756 11.2176 6.59995 11.2176H19.4C19.8243 11.2176 20.2313 11.049 20.5313 10.7489C20.8314 10.4489 21 10.0419 21 9.61758C21 9.19323 20.8314 8.78627 20.5313 8.48621C20.2313 8.18615 19.8243 8.01758 19.4 8.01758H6.59995Z" fill="white"/>
</svg>
