<svg width="26" height="26" viewBox="0 0 26 26" fill="none" xmlns="http://www.w3.org/2000/svg">
<path fill-rule="evenodd" clip-rule="evenodd" d="M13 25.6176C16.3947 25.6176 19.6505 24.269 22.0509 21.8685C24.4514 19.4681 25.8 16.2123 25.8 12.8176C25.8 9.42281 24.4514 6.16708 22.0509 3.76661C19.6505 1.36615 16.3947 0.0175781 13 0.0175781C9.60518 0.0175781 6.34945 1.36615 3.94898 3.76661C1.54852 6.16708 0.199951 9.42281 0.199951 12.8176C0.199951 16.2123 1.54852 19.4681 3.94898 21.8685C6.34945 24.269 9.60518 25.6176 13 25.6176ZM14.6 6.41758C14.6 5.99323 14.4314 5.58627 14.1313 5.28621C13.8313 4.98615 13.4243 4.81758 13 4.81758C12.5756 4.81758 12.1686 4.98615 11.8686 5.28621C11.5685 5.58627 11.4 5.99323 11.4 6.41758V12.8176C11.4 13.2419 11.5687 13.6488 11.8688 13.9488L16.3936 18.4752C16.5422 18.6238 16.7187 18.7418 16.9129 18.8222C17.1071 18.9027 17.3153 18.9441 17.5256 18.9441C17.7358 18.9441 17.944 18.9027 18.1382 18.8222C18.3324 18.7418 18.5089 18.6238 18.6576 18.4752C18.8062 18.3265 18.9241 18.15 19.0046 17.9558C19.085 17.7616 19.1264 17.5534 19.1264 17.3432C19.1264 17.1329 19.085 16.9248 19.0046 16.7305C18.9241 16.5363 18.8062 16.3598 18.6576 16.2112L14.6 12.1552V6.41758Z" fill="white"/>
</svg>
