<svg width="31" height="30" viewBox="0 0 31 30" fill="none" xmlns="http://www.w3.org/2000/svg">
<path d="M21.6087 -0.0078125H9.48306C4.55509 -0.0078125 0.545898 4.00138 0.545898 8.92935V21.055C0.545898 25.983 4.55509 29.9922 9.48306 29.9922H21.6087C26.5367 29.9922 30.5459 25.983 30.5459 21.055V8.92935C30.5458 4.00138 26.5367 -0.0078125 21.6087 -0.0078125ZM27.5279 21.055C27.5279 24.3241 24.8778 26.9742 21.6087 26.9742H9.48306C6.21402 26.9742 3.5639 24.3241 3.5639 21.055V8.92935C3.5639 5.66026 6.21402 3.01019 9.48306 3.01019H21.6087C24.8778 3.01019 27.5279 5.66026 27.5279 8.92935V21.055Z" fill="white"/>
<path d="M15.5459 7.23242C11.2676 7.23242 7.78687 10.7131 7.78687 14.9914C7.78687 19.2697 11.2676 22.7505 15.5459 22.7505C19.8243 22.7505 23.305 19.2698 23.305 14.9914C23.305 10.7131 19.8243 7.23242 15.5459 7.23242ZM15.5459 19.7326C12.9275 19.7326 10.8049 17.6099 10.8049 14.9915C10.8049 12.373 12.9275 10.2504 15.5459 10.2504C18.1644 10.2504 20.287 12.373 20.287 14.9915C20.287 17.6099 18.1643 19.7326 15.5459 19.7326Z" fill="white"/>
<path d="M23.3199 9.15C24.3467 9.15 25.179 8.31761 25.179 7.29082C25.179 6.26402 24.3467 5.43164 23.3199 5.43164C22.2931 5.43164 21.4607 6.26402 21.4607 7.29082C21.4607 8.31761 22.2931 9.15 23.3199 9.15Z" fill="white"/>
</svg>
