<svg width="37" height="30" viewBox="0 0 37 30" fill="none" xmlns="http://www.w3.org/2000/svg">
<path d="M36.1156 3.48212C35.3125 3.83745 34.4789 4.11778 33.6235 4.32072C34.566 3.42698 35.2747 2.30911 35.6746 1.06135C35.7887 0.70514 35.4009 0.397114 35.0786 0.587838C33.8885 1.29217 32.6067 1.82056 31.2685 2.15848C31.1909 2.17809 31.1108 2.18802 31.0304 2.18802C30.7867 2.18802 30.5497 2.09772 30.3633 1.93381C28.9396 0.681749 27.1084 -0.0078125 25.2073 -0.0078125C24.3847 -0.0078125 23.5541 0.120129 22.7386 0.372493C20.2119 1.15447 18.2624 3.23415 17.6507 5.8C17.4212 6.76242 17.3591 7.72571 17.4659 8.66307C17.4781 8.77078 17.4271 8.84597 17.3957 8.88123C17.3404 8.94304 17.2621 8.97848 17.1807 8.97848C17.1716 8.97848 17.1623 8.97804 17.153 8.97716C11.6222 8.46443 6.63472 5.80563 3.10931 1.49064C2.92954 1.27054 2.5848 1.29754 2.44151 1.54278C1.75114 2.72458 1.38631 4.07627 1.38631 5.45171C1.38631 7.55961 2.23503 9.54608 3.70926 10.9942C3.08931 10.8476 2.48927 10.6166 1.93189 10.3077C1.66223 10.1582 1.33044 10.3503 1.32665 10.6581C1.28805 13.7895 3.12544 16.5759 5.87791 17.8306C5.82248 17.8319 5.76705 17.8325 5.71153 17.8325C5.27523 17.8325 4.83346 17.7905 4.39866 17.7076C4.09498 17.6497 3.83986 17.9372 3.93416 18.2309C4.82756 21.0141 7.22912 23.0655 10.103 23.5313C7.71786 25.1289 4.94027 25.9717 2.04935 25.9717L1.14811 25.9711C0.870429 25.9711 0.635578 26.1518 0.564814 26.4201C0.495108 26.6845 0.623505 26.9633 0.860295 27.1007C4.11789 28.9924 7.83365 29.9922 11.6075 29.9922C14.9108 29.9922 18.0008 29.3381 20.7917 28.0481C23.3502 26.8655 25.6111 25.175 27.5116 23.0236C29.282 21.0194 30.6665 18.7059 31.6263 16.1472C32.5413 13.7083 33.0249 11.1058 33.0249 8.62121V8.50286C33.0248 8.10391 33.2057 7.72853 33.5212 7.473C34.7183 6.50311 35.7608 5.3614 36.6196 4.07962C36.8463 3.74117 36.4887 3.31698 36.1156 3.48212Z" fill="white"/>
</svg>
