<svg width="97" height="80" viewBox="0 0 97 80" fill="none" xmlns="http://www.w3.org/2000/svg">
<path d="M95.058 9.30648C92.9211 10.254 90.7029 11.0016 88.4267 11.5428C90.9348 9.15946 92.8205 6.17845 93.8844 2.8511C94.188 1.90121 93.1563 1.0798 92.2986 1.5884C89.1321 3.46663 85.7213 4.87565 82.1606 5.77678C81.954 5.82907 81.7409 5.85556 81.527 5.85556C80.8784 5.85556 80.2479 5.61475 79.752 5.17767C75.9636 1.83883 71.0913 0 66.0327 0C63.8438 0 61.6338 0.341176 59.4638 1.01415C52.7407 3.09942 47.5532 8.64523 45.9256 15.4875C45.315 18.0539 45.1497 20.6227 45.4339 23.1223C45.4665 23.4096 45.3307 23.6101 45.247 23.7041C45.1 23.8689 44.8915 23.9634 44.6751 23.9634C44.6509 23.9634 44.6261 23.9623 44.6015 23.9599C29.8847 22.5926 16.6138 15.5025 7.23321 3.99586C6.75486 3.40895 5.83755 3.48093 5.45628 4.13491C3.61932 7.28639 2.64856 10.8909 2.64856 14.5587C2.64856 20.1798 4.90688 25.477 8.82958 29.3388C7.17998 28.9477 5.58337 28.3317 4.10025 27.5079C3.38273 27.1093 2.49989 27.6216 2.48981 28.4423C2.38711 36.7928 7.27612 44.2232 14.6 47.5691C14.4525 47.5726 14.305 47.5742 14.1573 47.5742C12.9964 47.5742 11.8209 47.4621 10.664 47.241C9.85593 47.0867 9.17709 47.8533 9.42799 48.6367C11.8052 56.0584 18.1954 61.5289 25.8424 62.771C19.4958 67.0313 12.1051 69.2786 4.41282 69.2786L2.01474 69.2772C1.27588 69.2772 0.650977 69.7589 0.462686 70.4745C0.277208 71.1794 0.618853 71.9229 1.24891 72.2894C9.91689 77.3339 19.804 80 29.8456 80C38.6352 80 46.8572 78.2557 54.2834 74.8158C61.0912 71.6622 67.1071 67.1542 72.164 61.417C76.8748 56.0727 80.5586 49.9031 83.1126 43.0801C85.5473 36.5762 86.8341 29.6363 86.8341 23.0107V22.6951C86.8339 21.6313 87.3151 20.6302 88.1545 19.9488C91.34 17.3625 94.114 14.3179 96.399 10.8998C97.0023 9.99727 96.0508 8.86612 95.058 9.30648Z" fill="#76A9EA"/>
</svg>
