<svg width="199" height="88" viewBox="0 0 199 88" fill="none" xmlns="http://www.w3.org/2000/svg">
<path d="M53.0916 9.6669C52.5959 9.77705 51.6596 11.3191 50.9987 13.1366C49.5117 17.2121 45.7667 22.334 42.3521 24.9225C36.9548 29.0531 29.5198 31.8068 23.2964 31.972C21.534 32.0271 20.1021 32.1923 20.1021 32.3575C20.1021 32.5227 21.534 33.2938 23.2413 34.0648C31.5575 37.6447 40.2042 35.2214 47.5841 27.1255C49.1813 25.4182 51.2741 22.7195 52.2654 21.1774C54.5786 17.5425 57.4975 15.0091 60.3063 14.183C62.7846 13.412 62.8397 13.3018 61.5179 11.7046C59.8106 9.55675 56.5062 8.73063 53.0916 9.6669ZM59.5903 11.7046C60.0309 12.1452 58.1033 14.2381 57.2221 14.2381C56.1757 14.2381 53.2017 17.4324 51.0538 20.847C47.7494 26.079 42.4622 30.8154 37.3403 33.0735C35.0272 34.1199 29.0792 34.5605 27.8125 33.7894C26.9313 33.2387 27.1516 32.4126 28.253 32.4126C30.0705 32.4126 36.2939 30.1545 39.323 28.4472C43.8391 25.8587 48.19 21.0673 50.7234 15.9454C53.0916 11.1539 54.3032 10.2727 57.4424 10.9887C58.4888 11.209 59.4251 11.5394 59.5903 11.7046Z" fill="pink"/>
<path d="M65.8689 11.4842C65.7587 15.6699 62.5093 18.6439 58.1585 18.6439C55.7352 18.6439 55.57 18.7541 54.3583 21.0121C53.6975 22.3339 51.9351 24.7021 50.5582 26.2992L47.9697 29.2182L49.8973 28.8327C60.0861 26.7949 65.208 23.9861 66.8602 19.5802C67.6863 17.4873 67.5762 13.8524 66.6399 11.4842L65.924 9.55664L65.8689 11.4842ZM65.208 19.0294C64.8775 19.9106 64.1065 21.1773 63.4456 21.8933C61.9586 23.4904 55.9004 26.3543 53.9728 26.3543H52.5409L54.6337 23.3252C56.5062 20.6266 56.9468 20.2961 58.7092 20.2961C59.8107 20.2961 61.7934 19.6903 63.1152 18.9743C64.4369 18.2033 65.5935 17.5975 65.6486 17.5975C65.7037 17.5424 65.5384 18.2033 65.208 19.0294Z" fill="pink"/>
<path d="M63.7211 25.5287C59.8108 28.1723 54.9092 29.9347 49.8423 30.5405C47.0886 30.8159 45.8219 31.3115 44.0045 32.6884C42.6827 33.6797 40.5348 34.9464 39.1579 35.4421C37.7811 35.9929 36.6245 36.5436 36.6245 36.7639C36.6245 37.3146 43.5639 40.0684 46.648 40.7292C50.0626 41.5003 55.9556 41.0597 58.6542 39.9582C59.7006 39.4625 62.3442 38.0857 64.437 36.874C68.2922 34.5609 74.4606 32.413 76.8838 32.413C77.5998 32.413 79.252 32.9087 80.5738 33.5145C82.3913 34.3406 82.9971 34.9464 83.2174 36.2682C83.8783 39.5176 84.7044 38.8016 84.3739 35.2218C83.8783 29.439 80.3535 26.2447 72.1474 24.1519C69.7792 23.5461 67.6864 23.1055 67.5212 23.1055C67.356 23.1605 65.6487 24.207 63.7211 25.5287ZM74.3504 25.8592C76.8288 26.6853 78.7564 27.7868 80.4637 29.439C83.4927 32.1927 83.3275 33.3493 80.0781 32.0826C76.3882 30.5956 72.9736 31.3666 64.0515 35.8827L56.1759 39.8481L51.2192 39.793C46.1524 39.793 42.7378 39.0219 41.3058 37.5349C40.3696 36.5987 40.2043 35.7175 41.0305 35.7175C41.3609 35.7175 42.903 34.8914 44.5001 33.845C46.5379 32.4681 48.6858 31.6971 52.0453 31.0362C56.4513 30.2101 63.1153 27.5114 65.5385 25.5838C67.0806 24.3722 70.1097 24.4823 74.3504 25.8592Z" fill="pink"/>
<path d="M23.4067 42.2157C23.4067 42.436 24.2329 42.5462 25.2793 42.436C26.3257 42.3259 28.033 42.6012 29.1345 43.152C31.3925 44.2535 32.4389 43.868 30.7867 42.6012C29.6852 41.7751 23.4067 41.4447 23.4067 42.2157Z" fill="white"/>
<path d="M39.7085 42.6012C38.0012 43.868 39.1578 44.2535 41.526 43.152C42.7927 42.6012 44.4449 42.3259 45.3812 42.436C46.3174 42.6012 47.0885 42.4911 47.0885 42.2157C47.0885 41.4447 40.81 41.7751 39.7085 42.6012Z" fill="white"/>
<path d="M70.1509 42.7391L69.5313 41.7064L68.2922 41.0868L56.3135 43.1521L44.1283 46.2501L37.5194 49.9676V86.3166L54.8678 81.3599L69.5313 79.5012L69.7379 67.1095L68.4987 66.6964L66.2269 67.5225L62.5094 64.4246L61.6832 63.1854L61.4767 61.3267L61.0637 60.294L61.2702 59.4679L60.8571 57.4026L61.2702 56.37L63.3355 55.3373L67.053 53.8916L70.7705 53.6851L70.1509 42.7391Z" fill="white"/>
<path d="M0 47.4479V54.8279L2.20297 54.6076C3.52476 54.4424 5.61758 54.7728 7.43503 55.4337C12.0613 57.0309 10.409 58.0773 5.01176 56.9207C3.57983 56.6453 2.97401 56.7004 3.19431 57.0309C3.41461 57.3613 4.2958 57.7468 5.17699 57.9121C6.11325 58.1323 7.76548 58.628 8.92204 59.1237C12.0062 60.4455 10.1887 61.2716 6.60892 60.2252C2.53342 58.9585 2.3682 59.2889 6.2234 61.0513C9.58293 62.5934 10.6293 63.805 8.59159 63.805C8.04085 63.805 6.38862 63.3093 4.95669 62.6484C3.57983 62.0426 2.20297 61.7122 2.03775 61.9325C1.81745 62.0977 1.9276 62.4281 2.31312 62.5383C3.63491 63.034 5.7828 65.0166 5.7828 65.7877C5.7828 66.8341 5.39728 66.779 3.30446 65.4572C0.495669 63.7499 0.110149 64.6862 0.165223 72.7821V79.5012L5.17699 80.1621C15.9165 81.594 26.8212 84.3477 33.4852 87.2116C34.3664 87.5971 34.4215 86.4956 34.4215 68.6515C34.4215 51.1379 34.3664 49.5958 33.4301 48.7697C31.888 47.3378 26.711 45.1899 21.9747 43.9782C17.6789 42.8217 2.75372 40.123 0.936264 40.123C0.110149 40.123 0 40.9492 0 47.4479ZM11.841 43.3174C13.2178 43.5927 17.1281 44.4188 20.5427 45.1348L26.711 46.4566L26.7661 48.6596C26.8212 50.4219 26.8763 50.5872 27.2067 49.5408C27.7024 47.7233 28.3082 47.6132 30.4561 48.9349L32.2185 50.0364V67.1645C32.2185 83.2462 32.1634 84.2926 31.2822 84.0173C26.711 82.7506 17.2383 80.3824 15.586 80.107C14.4295 79.8867 13.6584 79.4461 13.7135 79.0606C13.7686 78.6751 14.9802 77.133 16.4672 75.646C21.5341 70.4139 25.94 60.8861 26.4907 53.8916C26.711 50.9176 26.711 50.9176 25.94 54.7177C24.1776 63.3644 21.0384 69.9183 16.2469 74.93C14.2642 77.0228 12.7222 78.7852 12.8323 78.8954C12.9425 79.0055 11.3453 79.0606 9.25249 78.9504C5.45236 78.7852 2.47834 78.2895 1.9276 77.7939C1.76238 77.6287 1.54208 75.0952 1.43193 72.2314L1.26671 66.9442L3.46968 67.3298C4.84654 67.495 5.83788 67.4399 6.05818 67.1095C6.27847 66.779 7.32488 65.9529 8.48145 65.2369C9.58293 64.521 10.5743 63.4746 10.6293 62.9238C11.2902 56.8656 11.2902 56.2598 10.2989 55.4337C9.19741 54.4424 6.16832 53.3409 3.91028 53.0104C2.97401 52.9003 2.09282 52.4597 1.81745 52.0742C1.59716 51.7437 1.37686 49.4857 1.37686 47.1175C1.37686 41.4448 1.48701 41.3898 11.841 43.3174Z" fill="white"/>
<path d="M61.6832 41.8303C50.3379 43.7579 44.9406 45.1899 40.4796 47.4479L36.8998 49.2103L36.7346 68.5965L36.6244 87.9826L38.9926 86.9362C44.3899 84.5129 63.5007 80.3273 68.9531 80.3273H70.7705V72.6169C70.7705 64.2456 70.6053 63.8601 67.8516 66.008C66.0892 67.3848 65.8138 67.3848 65.8138 66.008C65.8138 65.292 66.5849 64.4108 67.8516 63.6948C70.6053 62.0426 69.2835 61.8223 65.8138 63.3093C63.9413 64.0804 62.8398 64.3557 62.4543 63.9702C61.7383 63.2543 62.8398 62.3731 66.1993 60.9962L68.8429 59.8947L66.6399 60.2802C65.4283 60.4455 63.7761 60.7208 62.95 60.8861C61.8485 61.1064 61.4079 60.9411 61.4079 60.3904C61.4079 59.8396 62.6746 59.1788 65.1529 58.5179C67.5762 57.857 68.4023 57.4164 67.5762 57.3062C66.9153 57.1961 65.4834 57.4164 64.437 57.7468C63.2253 58.1323 62.234 58.1874 61.6282 57.857C60.8021 57.4164 60.9122 57.1961 62.5094 56.37C63.5007 55.8743 65.8138 55.2685 67.6863 55.1033L71.0459 54.7177L70.4951 40.3433L61.6832 41.8303ZM69.2284 46.2914C69.4487 51.964 69.2835 52.7351 67.5762 53.1757C65.3181 53.7264 61.1876 55.5989 60.747 56.3149C60.5267 56.6453 60.4716 57.912 60.6368 59.1237C60.802 60.3353 60.9673 61.9325 61.0774 62.6484C61.1325 63.3644 61.8485 64.4108 62.5644 64.9616C63.2804 65.5674 64.437 66.5036 65.0428 67.1645C65.8138 67.9356 66.5849 68.2109 67.3008 67.9906C67.9617 67.7703 68.6226 67.9356 68.9531 68.3211C69.7241 69.3124 69.5589 77.3533 68.7878 78.1243C68.4023 78.5098 67.0805 78.8954 65.8138 79.0055C64.5471 79.1157 62.5094 79.5012 61.2977 79.8316C59.0947 80.3824 58.9846 80.3824 56.7816 78.1794C53.2569 74.7097 48.7408 67.0544 46.7581 61.1614C45.7668 58.1874 44.9406 56.2047 44.9406 56.6453C44.8856 58.0222 46.9784 64.0804 48.7958 67.9356C49.8973 70.3038 52.4858 74.159 54.6888 76.8576C55.7352 78.1794 56.341 79.2258 56.1207 79.2258C55.8454 79.2258 56.0106 79.4461 56.3961 79.7215C57.3324 80.3273 57.0019 80.4374 50.6684 81.6491C48.5756 82.0897 44.8856 83.0259 42.5725 83.797L38.2767 85.1738V50.5872L39.5434 49.8161C41.526 48.5494 43.2333 48.219 43.4536 49.0451C43.5638 49.4306 43.8942 51.1379 44.2247 52.7901C44.7203 55.5989 44.7203 55.4888 44.445 51.4133L44.1696 47.0073L47.9697 46.0711C50.0626 45.5203 53.7525 44.7493 56.1758 44.3087C58.5991 43.8681 61.6832 43.2623 63.0601 42.9869C64.437 42.7115 66.3095 42.4362 67.3008 42.3811L69.0081 42.326L69.2284 46.2914Z" fill="white"/>
<path d="M0.963802 42.7391L2.20297 41.7064L3.44215 41.0868L15.4208 43.1521L27.606 46.2501L33.1823 49.5545V86.1101L16.8665 81.3599L0.757273 78.6751V67.1095L1.17033 66.4899L5.50743 67.1095L9.22495 64.4246L10.2576 63.3919V61.3267L10.6707 60.294L10.4641 59.4679V56.37L8.39883 55.3373L4.68132 53.8916L0.963802 53.6851V42.7391Z" fill="white"/>
<path d="M44.7203 1.79065C45.1058 4.37914 44.6101 6.08644 42.9028 8.17927C40.9202 10.4924 38.2215 11.7591 31.5575 13.4664C20.1571 16.3853 13.3279 20.8464 10.3539 27.235C7.93064 32.5221 9.47272 37.4788 14.2642 39.6267C17.0179 40.8934 18.3948 40.8934 22.305 39.6267L25.3341 38.6354L22.1949 37.9745C20.2122 37.5339 18.56 36.7628 17.6788 35.8816C16.0816 34.3396 15.9715 33.7337 16.7976 31.6409C17.2933 30.2641 17.5136 30.209 21.6441 30.209C29.6299 30.209 37.7258 26.9045 43.2883 21.3971C50.1726 14.5128 51.219 7.13285 46.0421 1.12975C44.6101 -0.522476 44.3348 -0.412327 44.7203 1.79065ZM47.8595 10.8228C47.3088 14.1273 46.2073 16.2201 43.4536 19.1941C37.5055 25.5277 31.3372 28.4466 22.6906 28.9423C17.7889 29.2177 17.1831 29.3829 16.2469 30.6496C14.6497 32.6323 14.87 34.7802 16.8527 37.0933L18.56 39.0209H17.2382C15.641 39.0209 11.0699 35.9367 11.5655 35.1657C11.7308 34.8903 11.6206 34.5599 11.2902 34.3396C10.0785 33.6236 11.1249 26.3538 12.4467 26.3538C12.7221 26.3538 12.9424 26.0233 12.9424 25.5828C12.9424 24.261 17.4585 20.6261 21.7543 18.4782C24.0123 17.3767 28.3632 15.7795 31.3923 15.0085C34.4214 14.2374 37.8911 13.0258 39.1027 12.42C40.3143 11.7591 41.526 11.2634 41.8564 11.2084C42.1318 11.2084 43.3985 9.77642 44.6101 8.01404L46.758 4.81973L47.474 6.80241C47.8595 7.90389 48.0247 9.72135 47.8595 10.8228Z" fill="white"/>
<path d="M15.2142 39.2274L18.1056 39.847C19.1383 40.6043 20.4187 41.0449 17.2795 36.7491C14.1403 32.4533 16.7976 30.4155 18.5187 29.9336L20.7905 29.7271L33.1822 27.4553L41.6499 22.2921L46.6066 16.0962L48.6719 10.933L48.0523 6.18283L46.6066 3.29142L45.5739 5.76977L41.2368 10.933L30.2908 14.6505L23.2688 16.9223L18.1056 19.8137L14.3881 22.4986L11.7032 26.0096L10.2575 29.5206L10.051 33.8577L11.7032 36.7491L15.2142 39.2274Z" fill="white"/>
<path d="M52.3893 11.3466C46.937 26.3819 32.9068 31.6552 26.5732 32.4125V34.4778L33.5952 34.8909L38.1388 33.6517L41.0302 32.206L48.2588 25.8036L56.5199 15.4772L60.857 13.4119L60.0309 11.3466L57.1395 10.1074H54.2481L52.3893 11.3466Z" fill="white"/>
<path d="M60.2377 19.4017H56.5201L51.1504 27.6628L54.6614 27.0432L62.9225 23.3257L66.227 19.6082L66.4335 16.7168L64.5748 17.3364L60.2377 19.4017Z" fill="white"/>
<path d="M44.7477 33.0311L39.791 35.9225V36.1291L40.6171 38.1943L47.8456 40.4662L56.1068 40.2596L57.346 39.8466L68.292 34.2703L76.5531 31.792L82.9555 33.4442V31.3789L80.4772 28.4875L75.9335 26.0091L72.0095 24.5634L67.0528 24.1504L60.2374 28.0744L54.248 30.1397L48.6717 31.1724L44.7477 33.0311Z" fill="white"/>
<path d="M195.147 79.0399C194.833 79.0399 194.549 78.9987 194.294 78.9163C194.046 78.8421 193.824 78.7349 193.626 78.5948C193.436 78.4465 193.272 78.2775 193.131 78.0879L192.946 78.8915H191.462V69.9902H193.131V73.5755C193.329 73.3035 193.589 73.0686 193.91 72.8708C194.232 72.673 194.644 72.5741 195.147 72.5741C195.723 72.5741 196.234 72.7142 196.68 72.9944C197.133 73.2746 197.491 73.662 197.755 74.1565C198.019 74.6428 198.151 75.195 198.151 75.8132C198.151 76.4313 198.019 76.9835 197.755 77.4698C197.491 77.9561 197.133 78.3393 196.68 78.6195C196.234 78.8998 195.723 79.0399 195.147 79.0399ZM194.763 77.5811C195.093 77.5811 195.386 77.5069 195.641 77.3585C195.897 77.2102 196.094 77.0041 196.234 76.7404C196.375 76.4684 196.445 76.1593 196.445 75.8132C196.445 75.467 196.375 75.1621 196.234 74.8983C196.094 74.6263 195.897 74.4162 195.641 74.2678C195.386 74.1112 195.093 74.0329 194.763 74.0329C194.442 74.0329 194.153 74.1112 193.898 74.2678C193.642 74.4162 193.445 74.6222 193.304 74.8859C193.164 75.1497 193.094 75.4588 193.094 75.8132C193.094 76.1593 193.164 76.4684 193.304 76.7404C193.445 77.0041 193.642 77.2102 193.898 77.3585C194.153 77.5069 194.442 77.5811 194.763 77.5811Z" fill="white"/>
<path d="M181.841 79.0401C181.339 79.0401 180.906 78.933 180.543 78.7187C180.189 78.5044 179.917 78.1912 179.727 77.7791C179.538 77.3587 179.443 76.8436 179.443 76.2337V72.7227H181.112V76.073C181.112 76.5758 181.215 76.9631 181.421 77.2351C181.627 77.4989 181.953 77.6307 182.398 77.6307C182.678 77.6307 182.925 77.5648 183.139 77.4329C183.362 77.3011 183.535 77.1115 183.659 76.8642C183.782 76.617 183.844 76.312 183.844 75.9494V72.7227H185.513V78.8918H184.054L183.918 77.8656C183.729 78.22 183.457 78.5044 183.102 78.7187C182.748 78.933 182.328 79.0401 181.841 79.0401Z" fill="white"/>
<path d="M171.918 78.8915V69.9902H173.587V78.8915H171.918Z" fill="white"/>
<path d="M162.396 79.0406C161.53 79.0406 160.784 78.8551 160.158 78.4843C159.532 78.1051 159.049 77.5818 158.711 76.9142C158.374 76.2383 158.205 75.4595 158.205 74.5776C158.205 73.6957 158.374 72.9168 158.711 72.241C159.049 71.5651 159.532 71.0377 160.158 70.6585C160.784 70.2794 161.53 70.0898 162.396 70.0898C163.451 70.0898 164.312 70.3495 164.979 70.8687C165.647 71.3879 166.063 72.1215 166.228 73.0693H164.398C164.291 72.6078 164.069 72.2492 163.731 71.9937C163.393 71.73 162.944 71.5981 162.383 71.5981C161.864 71.5981 161.419 71.7217 161.048 71.969C160.677 72.208 160.393 72.5501 160.195 72.9951C160.005 73.4319 159.911 73.9594 159.911 74.5776C159.911 75.1875 160.005 75.715 160.195 76.16C160.393 76.6051 160.677 76.9471 161.048 77.1862C161.419 77.4252 161.864 77.5447 162.383 77.5447C162.944 77.5447 163.393 77.4252 163.731 77.1862C164.069 76.9389 164.291 76.5969 164.398 76.16H166.228C166.063 77.0584 165.647 77.7631 164.979 78.2741C164.312 78.7851 163.451 79.0406 162.396 79.0406Z" fill="white"/>
<path d="M143.833 78.8915L141.163 75.5041L143.537 72.7224H145.515L142.449 76.1964V74.8736L145.91 78.8915H143.833ZM139.741 78.8915V69.9902H141.41V78.8915H139.741Z" fill="white"/>
<path d="M130.835 79.04C130.241 79.04 129.706 78.904 129.227 78.632C128.758 78.3518 128.383 77.9686 128.102 77.4823C127.822 76.996 127.682 76.4397 127.682 75.8133C127.682 75.1704 127.822 74.6059 128.102 74.1196C128.383 73.6333 128.762 73.2542 129.24 72.9822C129.718 72.7102 130.249 72.5742 130.835 72.5742C131.436 72.5742 131.976 72.7102 132.454 72.9822C132.932 73.2542 133.307 73.6333 133.579 74.1196C133.859 74.6059 134 75.1704 134 75.8133C134 76.4479 133.859 77.0084 133.579 77.4947C133.299 77.9727 132.92 78.3518 132.442 78.632C131.964 78.904 131.428 79.04 130.835 79.04ZM130.835 77.5936C131.107 77.5936 131.35 77.5276 131.564 77.3958C131.787 77.2639 131.964 77.0661 132.096 76.8023C132.228 76.5304 132.293 76.1966 132.293 75.8009C132.293 75.4053 132.228 75.0756 132.096 74.8119C131.964 74.5482 131.787 74.3504 131.564 74.2185C131.35 74.0866 131.111 74.0207 130.847 74.0207C130.583 74.0207 130.34 74.0866 130.118 74.2185C129.895 74.3504 129.718 74.5482 129.586 74.8119C129.454 75.0756 129.388 75.4094 129.388 75.8133C129.388 76.2007 129.454 76.5304 129.586 76.8023C129.718 77.0661 129.891 77.2639 130.105 77.3958C130.328 77.5276 130.571 77.5936 130.835 77.5936Z" fill="white"/>
<path d="M118.974 79.04C118.381 79.04 117.845 78.904 117.367 78.632C116.897 78.3518 116.522 77.9686 116.242 77.4823C115.962 76.996 115.822 76.4397 115.822 75.8133C115.822 75.1704 115.962 74.6059 116.242 74.1196C116.522 73.6333 116.901 73.2542 117.38 72.9822C117.858 72.7102 118.389 72.5742 118.974 72.5742C119.576 72.5742 120.116 72.7102 120.594 72.9822C121.072 73.2542 121.447 73.6333 121.719 74.1196C121.999 74.6059 122.139 75.1704 122.139 75.8133C122.139 76.4479 121.999 77.0084 121.719 77.4947C121.439 77.9727 121.06 78.3518 120.581 78.632C120.103 78.904 119.568 79.04 118.974 79.04ZM118.974 77.5936C119.246 77.5936 119.489 77.5276 119.704 77.3958C119.926 77.2639 120.103 77.0661 120.235 76.8023C120.367 76.5304 120.433 76.1966 120.433 75.8009C120.433 75.4053 120.367 75.0756 120.235 74.8119C120.103 74.5482 119.926 74.3504 119.704 74.2185C119.489 74.0866 119.25 74.0207 118.987 74.0207C118.723 74.0207 118.48 74.0866 118.257 74.2185C118.035 74.3504 117.858 74.5482 117.726 74.8119C117.594 75.0756 117.528 75.4094 117.528 75.8133C117.528 76.2007 117.594 76.5304 117.726 76.8023C117.858 77.0661 118.031 77.2639 118.245 77.3958C118.467 77.5276 118.711 77.5936 118.974 77.5936Z" fill="white"/>
<path d="M103.87 78.8923V70.2383H107.418C108.02 70.2383 108.522 70.3331 108.926 70.5226C109.338 70.7122 109.652 70.9759 109.866 71.3139C110.08 71.6435 110.187 72.0268 110.187 72.4636C110.187 72.9004 110.093 73.2672 109.903 73.5639C109.713 73.8606 109.462 74.0914 109.149 74.2562C108.844 74.4128 108.506 74.5035 108.135 74.5282L108.333 74.3922C108.728 74.4087 109.079 74.5158 109.384 74.7137C109.697 74.9032 109.94 75.1587 110.113 75.4802C110.294 75.8016 110.385 76.1519 110.385 76.531C110.385 76.9926 110.274 77.4005 110.051 77.7549C109.829 78.1093 109.503 78.3896 109.075 78.5956C108.654 78.7934 108.139 78.8923 107.529 78.8923H103.87ZM105.539 77.5324H107.27C107.723 77.5324 108.073 77.4294 108.321 77.2233C108.568 77.0173 108.691 76.7206 108.691 76.3332C108.691 75.9458 108.564 75.645 108.308 75.4307C108.053 75.2082 107.698 75.0969 107.245 75.0969H105.539V77.5324ZM105.539 73.8482H107.146C107.583 73.8482 107.913 73.7493 108.135 73.5515C108.366 73.3537 108.481 73.0735 108.481 72.7109C108.481 72.3565 108.366 72.0804 108.135 71.8825C107.913 71.6765 107.579 71.5735 107.134 71.5735H105.539V73.8482Z" fill="white"/>
<path d="M191.646 60.3467V49.7542H193.538L193.727 51.7508C193.965 51.2744 194.273 50.8751 194.651 50.5528C195.03 50.2165 195.471 49.9573 195.975 49.7752C196.494 49.593 197.082 49.502 197.741 49.502V51.7298H196.984C196.55 51.7298 196.137 51.7858 195.744 51.8979C195.352 51.996 195.002 52.1711 194.693 52.4233C194.399 52.6755 194.168 53.0188 194 53.4531C193.832 53.8875 193.748 54.4269 193.748 55.0714V60.3467H191.646Z" fill="white"/>
<path d="M184.267 60.5989C183.258 60.5989 182.362 60.3677 181.577 59.9053C180.792 59.443 180.176 58.7985 179.727 57.9718C179.293 57.1451 179.076 56.1853 179.076 55.0925C179.076 53.9716 179.293 52.9978 179.727 52.1711C180.176 51.3304 180.792 50.6789 181.577 50.2165C182.362 49.7401 183.272 49.502 184.309 49.502C185.346 49.502 186.236 49.7331 186.978 50.1955C187.721 50.6579 188.295 51.2744 188.702 52.045C189.108 52.8016 189.311 53.6423 189.311 54.567C189.311 54.7072 189.304 54.8613 189.29 55.0294C189.29 55.1835 189.283 55.3587 189.269 55.5548H180.61V54.0626H187.209C187.167 53.1799 186.873 52.4934 186.327 52.003C185.78 51.4986 185.101 51.2464 184.288 51.2464C183.714 51.2464 183.188 51.3795 182.712 51.6457C182.235 51.8979 181.85 52.2762 181.556 52.7806C181.276 53.271 181.136 53.8945 181.136 54.6511V55.2396C181.136 56.0242 181.276 56.6898 181.556 57.2362C181.85 57.7686 182.235 58.175 182.712 58.4552C183.188 58.7214 183.707 58.8545 184.267 58.8545C184.94 58.8545 185.493 58.7074 185.927 58.4131C186.362 58.1189 186.684 57.7196 186.894 57.2152H188.996C188.814 57.8597 188.506 58.4412 188.071 58.9596C187.637 59.464 187.097 59.8633 186.453 60.1576C185.822 60.4518 185.094 60.5989 184.267 60.5989Z" fill="white"/>
<path d="M170.822 60.6012C169.813 60.6012 168.923 60.363 168.153 59.8866C167.382 59.3962 166.78 58.7377 166.345 57.911C165.925 57.0704 165.715 56.1176 165.715 55.0527C165.715 53.9739 165.925 53.0211 166.345 52.1944C166.78 51.3678 167.382 50.7162 168.153 50.2398C168.937 49.7495 169.834 49.5043 170.843 49.5043C171.67 49.5043 172.398 49.6724 173.029 50.0087C173.659 50.3309 174.15 50.7933 174.5 51.3958V45.2168H176.602V60.349H174.71L174.5 58.7097C174.29 59.0319 174.017 59.3402 173.68 59.6344C173.344 59.9147 172.938 60.1458 172.461 60.328C171.985 60.5101 171.438 60.6012 170.822 60.6012ZM171.158 58.7727C171.817 58.7727 172.398 58.6186 172.903 58.3104C173.407 58.0021 173.792 57.5678 174.059 57.0073C174.339 56.4469 174.479 55.7953 174.479 55.0527C174.479 54.3101 174.339 53.6656 174.059 53.1192C173.792 52.5587 173.407 52.1244 172.903 51.8161C172.398 51.4939 171.817 51.3327 171.158 51.3327C170.528 51.3327 169.96 51.4939 169.456 51.8161C168.951 52.1244 168.559 52.5587 168.279 53.1192C167.999 53.6656 167.859 54.3101 167.859 55.0527C167.859 55.7953 167.999 56.4469 168.279 57.0073C168.559 57.5678 168.951 58.0021 169.456 58.3104C169.96 58.6186 170.528 58.7727 171.158 58.7727Z" fill="white"/>
<path d="M153.779 60.3467V49.7542H155.67L155.796 51.5616C156.132 50.9311 156.609 50.4337 157.225 50.0694C157.842 49.6911 158.549 49.502 159.348 49.502C160.189 49.502 160.91 49.6701 161.513 50.0064C162.115 50.3426 162.585 50.854 162.921 51.5406C163.257 52.2131 163.425 53.0608 163.425 54.0837V60.3467H161.324V54.2938C161.324 53.313 161.106 52.5704 160.672 52.066C160.238 51.5616 159.607 51.3094 158.781 51.3094C158.234 51.3094 157.744 51.4425 157.309 51.7087C156.875 51.9609 156.525 52.3392 156.259 52.8437C156.006 53.3481 155.88 53.9646 155.88 54.6931V60.3467H153.779Z" fill="white"/>
<path d="M146.4 60.5989C145.391 60.5989 144.494 60.3677 143.71 59.9053C142.925 59.443 142.308 58.7985 141.86 57.9718C141.426 57.1451 141.208 56.1853 141.208 55.0925C141.208 53.9716 141.426 52.9978 141.86 52.1711C142.308 51.3304 142.925 50.6789 143.71 50.2165C144.494 49.7401 145.405 49.502 146.442 49.502C147.479 49.502 148.368 49.7331 149.111 50.1955C149.853 50.6579 150.428 51.2744 150.834 52.045C151.241 52.8016 151.444 53.6423 151.444 54.567C151.444 54.7072 151.437 54.8613 151.423 55.0294C151.423 55.1835 151.416 55.3587 151.402 55.5548H142.743V54.0626H149.342C149.3 53.1799 149.006 52.4934 148.459 52.003C147.913 51.4986 147.233 51.2464 146.421 51.2464C145.846 51.2464 145.321 51.3795 144.844 51.6457C144.368 51.8979 143.983 52.2762 143.688 52.7806C143.408 53.271 143.268 53.8945 143.268 54.6511V55.2396C143.268 56.0242 143.408 56.6898 143.688 57.2362C143.983 57.7686 144.368 58.175 144.844 58.4552C145.321 58.7214 145.839 58.8545 146.4 58.8545C147.072 58.8545 147.626 58.7074 148.06 58.4131C148.494 58.1189 148.817 57.7196 149.027 57.2152H151.128C150.946 57.8597 150.638 58.4412 150.204 58.9596C149.769 59.464 149.23 59.8633 148.585 60.1576C147.955 60.4518 147.226 60.5989 146.4 60.5989Z" fill="white"/>
<path d="M132.031 60.5991C130.644 60.5991 129.432 60.2838 128.395 59.6533C127.358 59.0228 126.552 58.1401 125.978 57.0052C125.403 55.8703 125.116 54.5462 125.116 53.033C125.116 51.5338 125.403 50.2097 125.978 49.0608C126.566 47.9119 127.4 47.0151 128.479 46.3706C129.572 45.7121 130.861 45.3828 132.346 45.3828C134.013 45.3828 135.408 45.7891 136.528 46.6018C137.649 47.4004 138.371 48.5143 138.693 49.9435H136.297C136.087 49.1308 135.646 48.4933 134.973 48.0309C134.301 47.5546 133.418 47.3164 132.325 47.3164C131.288 47.3164 130.384 47.5476 129.614 48.0099C128.857 48.4723 128.276 49.1308 127.869 49.9855C127.463 50.8402 127.26 51.856 127.26 53.033C127.26 54.2239 127.463 55.2468 127.869 56.1015C128.276 56.9561 128.85 57.6077 129.593 58.056C130.335 58.5044 131.19 58.7286 132.157 58.7286C133.642 58.7286 134.756 58.3012 135.499 57.4465C136.255 56.5919 136.697 55.4499 136.823 54.0208H132.766V52.4025H138.945V60.3469H137.033L136.844 58.0981C136.507 58.6445 136.115 59.1069 135.667 59.4852C135.232 59.8495 134.721 60.1297 134.132 60.3259C133.544 60.508 132.843 60.5991 132.031 60.5991Z" fill="white"/>
<path d="M115.661 60.3469L107.674 52.2554C107.016 51.6108 106.546 51.0224 106.266 50.4899C106 49.9575 105.867 49.383 105.867 48.7665C105.867 48.122 106.021 47.5476 106.329 47.0432C106.651 46.5247 107.107 46.1184 107.695 45.8242C108.298 45.5299 109.012 45.3828 109.839 45.3828C110.666 45.3828 111.366 45.5369 111.941 45.8452C112.529 46.1394 112.977 46.5457 113.286 47.0642C113.608 47.5826 113.762 48.1711 113.748 48.8296H111.688C111.688 48.2411 111.506 47.7998 111.142 47.5055C110.778 47.1973 110.343 47.0432 109.839 47.0432C109.236 47.0432 108.76 47.2043 108.41 47.5265C108.073 47.8348 107.905 48.2411 107.905 48.7455C107.905 49.1519 108.024 49.5652 108.263 49.9855C108.501 50.3919 108.858 50.8472 109.335 51.3516L118.246 60.3469H115.661ZM108.977 60.5991C107.968 60.5991 107.079 60.4169 106.308 60.0526C105.537 59.6743 104.942 59.1489 104.522 58.4764C104.101 57.7898 103.891 56.9982 103.891 56.1015C103.891 55.3869 104.038 54.7354 104.332 54.1469C104.627 53.5444 105.061 53.019 105.636 52.5706C106.21 52.1082 106.918 51.7369 107.758 51.4567L108.557 51.1835L109.587 52.5286L108.725 52.8228C107.786 53.1451 107.093 53.5724 106.644 54.1048C106.196 54.6373 105.972 55.2678 105.972 55.9964C105.972 56.5288 106.098 57.0122 106.35 57.4465C106.616 57.8809 106.981 58.2172 107.443 58.4554C107.905 58.6935 108.445 58.8126 109.061 58.8126C109.86 58.8126 110.575 58.6445 111.205 58.3082C111.836 57.958 112.459 57.3905 113.076 56.6059C113.356 56.2416 113.643 55.8282 113.937 55.3659C114.231 54.9035 114.54 54.3781 114.862 53.7896L115.45 52.7177H117.636L116.753 54.336C116.389 55.0506 116.018 55.7021 115.64 56.2906C115.275 56.8651 114.904 57.3765 114.526 57.8248C113.727 58.8056 112.879 59.5132 111.983 59.9476C111.1 60.3819 110.098 60.5991 108.977 60.5991Z" fill="white"/>
<path d="M167.407 38.7119V28.1194H169.298L169.424 29.9268C169.761 29.2963 170.237 28.7989 170.854 28.4346C171.47 28.0563 172.178 27.8672 172.976 27.8672C173.817 27.8672 174.538 28.0353 175.141 28.3716C175.743 28.7079 176.213 29.2193 176.549 29.9058C176.885 30.5784 177.054 31.4261 177.054 32.4489V38.7119H174.952V32.6591C174.952 31.6783 174.735 30.9357 174.3 30.4313C173.866 29.9268 173.235 29.6746 172.409 29.6746C171.862 29.6746 171.372 29.8078 170.938 30.074C170.503 30.3262 170.153 30.7045 169.887 31.2089C169.635 31.7133 169.508 32.3298 169.508 33.0584V38.7119H167.407Z" fill="white"/>
<path d="M159.218 38.9641C158.349 38.9641 157.627 38.817 157.053 38.5228C156.478 38.2285 156.051 37.8362 155.771 37.3458C155.491 36.8414 155.351 36.302 155.351 35.7275C155.351 35.027 155.533 34.4315 155.897 33.9411C156.261 33.4367 156.78 33.0514 157.452 32.7852C158.125 32.5189 158.93 32.3858 159.869 32.3858H162.622C162.622 31.7693 162.531 31.2579 162.349 30.8516C162.167 30.4453 161.894 30.144 161.53 29.9479C161.179 29.7377 160.731 29.6326 160.184 29.6326C159.554 29.6326 159.015 29.7867 158.566 30.095C158.118 30.3892 157.838 30.8306 157.725 31.4191H155.624C155.708 30.6765 155.96 30.0459 156.38 29.5275C156.815 28.9951 157.368 28.5888 158.041 28.3085C158.713 28.0143 159.428 27.8672 160.184 27.8672C161.179 27.8672 162.013 28.0423 162.686 28.3926C163.358 28.7429 163.862 29.2403 164.199 29.8848C164.549 30.5153 164.724 31.2719 164.724 32.1546V38.7119H162.896L162.728 36.9255C162.573 37.2057 162.391 37.4719 162.181 37.7241C161.971 37.9763 161.719 38.1935 161.424 38.3757C161.144 38.5578 160.815 38.6979 160.437 38.796C160.072 38.9081 159.666 38.9641 159.218 38.9641ZM159.617 37.2618C160.065 37.2618 160.472 37.1707 160.836 36.9885C161.2 36.8064 161.509 36.5612 161.761 36.253C162.027 35.9307 162.223 35.5734 162.349 35.1811C162.489 34.7748 162.566 34.3614 162.58 33.9411V33.878H160.079C159.477 33.878 158.987 33.9551 158.608 34.1092C158.244 34.2493 157.978 34.4455 157.81 34.6977C157.641 34.9499 157.557 35.2441 157.557 35.5804C157.557 35.9307 157.634 36.2319 157.789 36.4841C157.957 36.7223 158.195 36.9115 158.503 37.0516C158.811 37.1917 159.183 37.2618 159.617 37.2618Z" fill="white"/>
<path d="M136.641 38.7119V28.1194H138.532L138.679 29.6116C139.016 29.0652 139.464 28.6378 140.024 28.3296C140.585 28.0213 141.215 27.8672 141.916 27.8672C142.448 27.8672 142.932 27.9442 143.366 28.0984C143.8 28.2385 144.186 28.4557 144.522 28.7499C144.858 29.0441 145.131 29.4084 145.342 29.8428C145.72 29.2263 146.224 28.7429 146.855 28.3926C147.499 28.0423 148.179 27.8672 148.894 27.8672C149.748 27.8672 150.484 28.0423 151.1 28.3926C151.717 28.7289 152.186 29.2403 152.508 29.9268C152.831 30.5994 152.992 31.4401 152.992 32.4489V38.7119H150.911V32.6591C150.911 31.6783 150.708 30.9357 150.302 30.4313C149.909 29.9268 149.328 29.6746 148.557 29.6746C148.039 29.6746 147.576 29.8078 147.17 30.074C146.764 30.3402 146.442 30.7255 146.203 31.2299C145.979 31.7343 145.867 32.3508 145.867 33.0794V38.7119H143.765V32.6591C143.765 31.6783 143.562 30.9357 143.156 30.4313C142.764 29.9268 142.182 29.6746 141.411 29.6746C140.921 29.6746 140.473 29.8078 140.066 30.074C139.66 30.3402 139.338 30.7255 139.1 31.2299C138.861 31.7343 138.742 32.3508 138.742 33.0794V38.7119H136.641Z" fill="white"/>
<path d="M128.893 38.9641C127.898 38.9641 127.001 38.733 126.203 38.2706C125.418 37.8082 124.795 37.1637 124.332 36.337C123.884 35.4963 123.66 34.5296 123.66 33.4367C123.66 32.3158 123.891 31.342 124.353 30.5153C124.816 29.6746 125.446 29.0231 126.245 28.5607C127.043 28.0984 127.94 27.8672 128.935 27.8672C129.944 27.8672 130.84 28.0984 131.625 28.5607C132.41 29.0231 133.026 29.6676 133.475 30.4943C133.937 31.321 134.168 32.2948 134.168 33.4157C134.168 34.5366 133.937 35.5104 133.475 36.337C133.026 37.1637 132.403 37.8082 131.604 38.2706C130.805 38.733 129.902 38.9641 128.893 38.9641ZM128.893 37.1567C129.467 37.1567 129.986 37.0166 130.448 36.7363C130.925 36.4561 131.303 36.0428 131.583 35.4963C131.877 34.9359 132.024 34.2423 132.024 33.4157C132.024 32.589 131.884 31.9024 131.604 31.356C131.324 30.7955 130.946 30.3752 130.469 30.095C130.007 29.8148 129.495 29.6746 128.935 29.6746C128.374 29.6746 127.856 29.8148 127.38 30.095C126.903 30.3752 126.518 30.7955 126.224 31.356C125.944 31.9024 125.803 32.589 125.803 33.4157C125.803 34.2423 125.944 34.9359 126.224 35.4963C126.518 36.0428 126.896 36.4561 127.359 36.7363C127.835 37.0166 128.346 37.1567 128.893 37.1567Z" fill="white"/>
<path d="M107.569 38.7119L103.576 24H105.824L108.809 36.2529L112.235 24H114.568L117.888 36.2949L120.915 24H123.163L119.107 38.7119H116.648L113.349 27.0054L109.965 38.7119H107.569Z" fill="white"/>
</svg>
